# xmcd CD database file
#
# Track frame offsets:
#	182
#	17065
#	30730
#	46270
#	62782
#	77577
#	95432
#	111777
#	131057
#	146440
#	166585
#	182835
#	196202
#	216102
#
# Disc length: 3060 seconds
#
# Revision: 3
# Processed by: cddbd v1.5.1PL0 Copyright (c) Steve Scherf et al.
# Submitted via: CDex 1.51
#
DISCID=b80bf20e
DTITLE=Various Artist - The Boogie Kings - Louisianna Country Soul
DYEAR=1993
DGENRE=Blues
TTITLE0=I Love that Swamp Pop Music
TTITLE1=Alligator Annie
TTITLE2=Take Me in Your Loving Arms
TTITLE3=Hey, Good Lookin'
TTITLE4=I'd Rather Go Blind
TTITLE5=For the Good Times
TTITLE6=Best Friends
TTITLE7=Boogie Chillun
TTITLE8=Pledging My Love
TTITLE9=Hold On, I'm Comin'
TTITLE10=Try Me
TTITLE11=Louisiana Country Soul
TTITLE12=You Don't Know Me
TTITLE13=I Feel Good
EXTD=YEAR: 1993
EXTT0=
EXTT1=
EXTT2=
EXTT3=
EXTT4=
EXTT5=
EXTT6=
EXTT7=
EXTT8=
EXTT9=
EXTT10=
EXTT11=
EXTT12=
EXTT13=
PLAYORDER=
